<?xml version="1.0" encoding="UTF-8"?>
<!DOCTYPE svg PUBLIC "-//W3C//DTD SVG 1.1//EN" "http://www.w3.org/Graphics/SVG/1.1/DTD/svg11.dtd">
<svg xmlns="http://www.w3.org/2000/svg" version="1.1" width="1200px" height="1200px" style="shape-rendering:geometricPrecision; text-rendering:geometricPrecision; image-rendering:optimizeQuality; fill-rule:evenodd; clip-rule:evenodd" xmlns:xlink="http://www.w3.org/1999/xlink">
<g><path style="opacity:0.981" fill="#010101" d="M 549.5,124.5 C 556.784,123.965 563.784,125.132 570.5,128C 583.328,136.915 596.328,145.581 609.5,154C 621.577,163.903 625.411,176.403 621,191.5C 536.077,320.35 450.411,448.683 364,576.5C 363.333,577.167 363.333,577.833 364,578.5C 471.833,470.667 579.667,362.833 687.5,255C 701.833,245 716.167,245 730.5,255C 815.613,340.113 900.779,425.279 986,510.5C 998.651,526.111 1002.65,543.778 998,563.5C 995.721,570.724 992.388,577.391 988,583.5C 859.833,711.667 731.667,839.833 603.5,968C 577.74,985.436 552.74,984.436 528.5,965C 437.806,874.306 347.14,783.64 256.5,693C 239.049,683.195 222.549,672.028 207,659.5C 199.191,647.223 198.524,634.556 205,621.5C 311.248,463.339 417.248,305.006 523,146.5C 526.787,141.044 530.954,135.877 535.5,131C 539.877,127.975 544.544,125.808 549.5,124.5 Z"/></g>
<g><path style="opacity:1" fill="#fbfbfb" d="M 552.5,149.5 C 554.527,149.338 556.527,149.505 558.5,150C 571.42,158.71 584.254,167.543 597,176.5C 598.297,181.117 597.13,184.95 593.5,188C 568.174,193.498 542.841,198.998 517.5,204.5C 516.833,204.167 516.167,203.833 515.5,203.5C 527.143,184.887 539.477,166.887 552.5,149.5 Z"/></g>
<g><path style="opacity:1" fill="#f9f9f9" d="M 553.5,244.5 C 555.028,244.517 555.528,245.184 555,246.5C 546.796,257.74 538.962,269.24 531.5,281C 504.975,287.53 478.309,293.197 451.5,298C 459.587,285.826 467.92,273.826 476.5,262C 502.304,256.209 527.971,250.376 553.5,244.5 Z"/></g>
<g><path style="opacity:1" fill="#f8f8f8" d="M 701.5,356.5 C 700.506,346.013 700.172,335.346 700.5,324.5C 700.578,308.143 701.245,291.81 702.5,275.5C 706.053,271.031 710.053,270.531 714.5,274C 724.667,284.167 734.833,294.333 745,304.5C 747.149,308.087 746.816,311.42 744,314.5C 729.965,328.702 715.799,342.702 701.5,356.5 Z"/></g>
<g><path style="opacity:1" fill="#f9f9f9" d="M 651.5,326.5 C 652.492,333.982 652.825,341.648 652.5,349.5C 652.074,368.833 651.574,388.167 651,407.5C 641.298,417.369 631.465,427.036 621.5,436.5C 620.505,425.012 620.172,413.345 620.5,401.5C 620.333,386.83 620.5,372.163 621,357.5C 631.342,347.325 641.508,336.992 651.5,326.5 Z"/></g>
<g><path style="opacity:1" fill="#fefefe" d="M 765.5,326.5 C 834.444,393.611 902.611,461.611 970,530.5C 977.775,543.638 977.108,556.304 968,568.5C 841.5,695 715,821.5 588.5,948C 575.969,957.156 562.969,957.823 549.5,950C 481.653,882.32 413.986,814.486 346.5,746.5C 486.188,606.479 625.854,466.479 765.5,326.5 Z"/></g>
<g><path style="opacity:1" fill="#494949" d="M 700.5,324.5 C 700.172,335.346 700.506,346.013 701.5,356.5C 701.44,357.043 701.107,357.376 700.5,357.5C 699.176,346.34 699.176,335.34 700.5,324.5 Z"/></g>
<g><path style="opacity:1" fill="#f9f9f9" d="M 402.5,389.5 C 399.572,389.565 396.905,390.232 394.5,391.5C 392.856,391.286 391.356,391.62 390,392.5C 389.685,391.092 390.018,389.759 391,388.5C 398.477,377.033 406.31,365.867 414.5,355C 439.847,349.564 465.181,344.064 490.5,338.5C 491.167,338.833 491.833,339.167 492.5,339.5C 484.304,351.197 476.304,363.03 468.5,375C 446.391,379.529 424.391,384.362 402.5,389.5 Z"/></g>
<g><path style="opacity:1" fill="#747474" d="M 651.5,326.5 C 651.56,325.957 651.893,325.624 652.5,325.5C 653.82,333.657 653.82,341.657 652.5,349.5C 652.825,341.648 652.492,333.982 651.5,326.5 Z"/></g>
<g><path style="opacity:1" fill="#4c4c4c" d="M 402.5,389.5 C 400.162,391.04 397.495,391.706 394.5,391.5C 396.905,390.232 399.572,389.565 402.5,389.5 Z"/></g>
<g><path style="opacity:1" fill="#f9f9f9" d="M 571.5,406.5 C 572.491,412.979 572.824,419.646 572.5,426.5C 572.043,446.832 571.543,467.166 571,487.5C 561.298,497.369 551.465,507.036 541.5,516.5C 540.505,503.677 540.171,490.677 540.5,477.5C 540.333,463.829 540.5,450.163 541,436.5C 551.672,426.995 561.839,416.995 571.5,406.5 Z"/></g>
<g><path style="opacity:1" fill="#616161" d="M 571.5,406.5 C 571.56,405.957 571.893,405.624 572.5,405.5C 573.819,412.656 573.819,419.656 572.5,426.5C 572.824,419.646 572.491,412.979 571.5,406.5 Z"/></g>
<g><path style="opacity:1" fill="#6e6e6e" d="M 620.5,401.5 C 620.172,413.345 620.505,425.012 621.5,436.5C 621.44,437.043 621.107,437.376 620.5,437.5C 619.175,425.34 619.175,413.34 620.5,401.5 Z"/></g>
<g><path style="opacity:1" fill="#f9f9f9" d="M 393.5,471.5 C 390.848,471.41 388.515,472.076 386.5,473.5C 366.466,477.464 346.466,481.297 326.5,485C 334.5,473 342.5,461 350.5,449C 374.862,443.794 399.195,438.461 423.5,433C 425.579,432.192 427.579,432.359 429.5,433.5C 421.471,445.03 413.637,456.697 406,468.5C 401.895,469.688 397.729,470.688 393.5,471.5 Z"/></g>
<g><path style="opacity:1" fill="#4e4e4e" d="M 393.5,471.5 C 391.485,472.924 389.152,473.59 386.5,473.5C 388.515,472.076 390.848,471.41 393.5,471.5 Z"/></g>
<g><path style="opacity:1" fill="#fbfbfb" d="M 491.5,486.5 C 492.489,491.975 492.822,497.642 492.5,503.5C 491.668,524.663 491.168,545.996 491,567.5C 481.298,577.369 471.465,587.036 461.5,596.5C 460.504,582.677 460.171,568.677 460.5,554.5C 460.486,541.815 460.986,529.148 462,516.5C 472.036,506.632 481.869,496.632 491.5,486.5 Z"/></g>
<g><path style="opacity:1" fill="#515151" d="M 491.5,486.5 C 491.56,485.957 491.893,485.624 492.5,485.5C 493.817,491.654 493.817,497.654 492.5,503.5C 492.822,497.642 492.489,491.975 491.5,486.5 Z"/></g>
<g><path style="opacity:1" fill="#868686" d="M 540.5,477.5 C 540.171,490.677 540.505,503.677 541.5,516.5C 541.44,517.043 541.107,517.376 540.5,517.5C 539.175,504.006 539.175,490.673 540.5,477.5 Z"/></g>
<g><path style="opacity:1" fill="#9b9b9b" d="M 365.5,528.5 C 362.673,527.632 359.673,527.632 356.5,528.5C 359.413,527.072 362.579,526.072 366,525.5C 367.791,526.632 367.625,527.632 365.5,528.5 Z"/></g>
<g><path style="opacity:1" fill="#f9f9f9" d="M 365.5,528.5 C 358.193,539.482 350.859,550.482 343.5,561.5C 341.887,562.427 340.221,563.261 338.5,564C 329.047,565.32 319.714,567.153 310.5,569.5C 307.848,569.41 305.515,570.076 303.5,571.5C 293.475,573.521 283.475,575.521 273.5,577.5C 270.848,577.41 268.515,578.076 266.5,579.5C 263.093,579.875 262.593,578.875 265,576.5C 272.518,564.786 280.518,553.452 289,542.5C 311.28,537.143 333.78,532.477 356.5,528.5C 359.673,527.632 362.673,527.632 365.5,528.5 Z"/></g>
<g><path style="opacity:1" fill="#fafafa" d="M 411.5,566.5 C 412.486,570.97 412.819,575.637 412.5,580.5C 411.668,602.663 411.168,624.996 411,647.5C 400.986,657.681 390.819,667.681 380.5,677.5C 380.167,673.5 379.833,669.5 379.5,665.5C 380.19,642.838 380.69,620.172 381,597.5C 391.369,587.298 401.535,576.965 411.5,566.5 Z"/></g>
<g><path style="opacity:1" fill="#5d5d5d" d="M 310.5,569.5 C 308.485,570.924 306.152,571.59 303.5,571.5C 305.515,570.076 307.848,569.41 310.5,569.5 Z"/></g>
<g><path style="opacity:1" fill="#3f3f3f" d="M 411.5,566.5 C 411.56,565.957 411.893,565.624 412.5,565.5C 413.814,570.652 413.814,575.652 412.5,580.5C 412.819,575.637 412.486,570.97 411.5,566.5 Z"/></g>
<g><path style="opacity:1" fill="#010101" d="M 740.5,589.5 C 741.2,593.798 741.533,598.131 741.5,602.5C 732.253,636.388 723.253,670.388 714.5,704.5C 713.262,706.214 712.595,708.214 712.5,710.5C 707.811,727.775 703.311,745.109 699,762.5C 692.6,774.95 682.433,780.45 668.5,779C 664.385,777.777 660.718,775.777 657.5,773C 619,734.5 580.5,696 542,657.5C 539.888,654.273 538.055,650.94 536.5,647.5C 536.36,641.464 536.693,635.464 537.5,629.5C 540.653,622.848 545.653,618.015 552.5,615C 604.488,601.003 656.488,587.003 708.5,573C 719.974,570.407 729.474,573.573 737,582.5C 738.705,584.577 739.872,586.91 740.5,589.5 Z"/></g>
<g><path style="opacity:1" fill="#5d5d5d" d="M 273.5,577.5 C 271.485,578.924 269.152,579.59 266.5,579.5C 268.515,578.076 270.848,577.41 273.5,577.5 Z"/></g>
<g><path style="opacity:1" fill="#969696" d="M 460.5,554.5 C 460.171,568.677 460.504,582.677 461.5,596.5C 461.44,597.043 461.107,597.376 460.5,597.5C 459.174,583.006 459.174,568.672 460.5,554.5 Z"/></g>
<g><path style="opacity:1" fill="#7d7d7d" d="M 740.5,589.5 C 741.952,591.848 742.618,594.514 742.5,597.5C 742.493,599.369 742.16,601.036 741.5,602.5C 741.533,598.131 741.2,593.798 740.5,589.5 Z"/></g>
<g><path style="opacity:1" fill="#a8a8a8" d="M 329.5,623.5 C 324.518,624.053 319.518,624.387 314.5,624.5C 319.448,622.754 324.448,622.421 329.5,623.5 Z"/></g>
<g><path style="opacity:1" fill="#f9f9f9" d="M 329.5,623.5 C 333.168,624.667 335.168,627.167 335.5,631C 333.671,645.794 332.337,660.627 331.5,675.5C 330.054,681.274 329.388,687.274 329.5,693.5C 328.88,700.143 327.714,706.81 326,713.5C 322.205,716.803 318.038,717.303 313.5,715C 289.638,691.472 266.138,667.639 243,643.5C 240.918,639.125 241.751,635.292 245.5,632C 251.987,629.958 258.654,629.125 265.5,629.5C 270.434,629.771 275.1,629.104 279.5,627.5C 291.114,626.004 302.78,625.004 314.5,624.5C 319.518,624.387 324.518,624.053 329.5,623.5 Z"/></g>
<g><path style="opacity:1" fill="#a8a8a8" d="M 279.5,627.5 C 275.1,629.104 270.434,629.771 265.5,629.5C 269.9,627.896 274.566,627.229 279.5,627.5 Z"/></g>
<g><path style="opacity:1" fill="#090909" d="M 257.5,636.5 C 272.627,635.106 277.794,641.439 273,655.5C 266.14,660.14 260.14,659.14 255,652.5C 252.453,646.558 253.287,641.225 257.5,636.5 Z"/></g>
<g><path style="opacity:1" fill="#424242" d="M 537.5,629.5 C 536.693,635.464 536.36,641.464 536.5,647.5C 535.836,645.19 535.503,642.69 535.5,640C 535.304,636.195 535.97,632.695 537.5,629.5 Z"/></g>
<g><path style="opacity:1" fill="#0a0a0a" d="M 305.5,683.5 C 319.534,681.966 325.034,687.966 322,701.5C 314.709,707.41 308.376,706.41 303,698.5C 300.492,692.88 301.325,687.88 305.5,683.5 Z"/></g>
<g><path style="opacity:1" fill="#424242" d="M 331.5,675.5 C 331.612,681.726 330.946,687.726 329.5,693.5C 329.388,687.274 330.054,681.274 331.5,675.5 Z"/></g>
<g><path style="opacity:1" fill="#7f7f7f" d="M 714.5,704.5 C 714.741,706.898 714.074,708.898 712.5,710.5C 712.595,708.214 713.262,706.214 714.5,704.5 Z"/></g>
<g><path style="opacity:0.109" fill="#f6f6f6" d="M 498.5,1019.5 C 546.691,1019.43 595.024,1019.6 643.5,1020C 669.084,1020.21 694.584,1021.04 720,1022.5C 720.893,1021.92 721.893,1021.59 723,1021.5C 744.29,1022.5 765.29,1023.83 786,1025.5C 811.871,1026 837.704,1028.5 863.5,1033C 869.406,1034.04 874.573,1036.54 879,1040.5C 882.621,1046.65 881.788,1052.15 876.5,1057C 870.905,1060.2 864.905,1062.2 858.5,1063C 821.994,1067.89 785.328,1070.89 748.5,1072C 612.115,1077.39 475.782,1076.39 339.5,1069C 317.635,1067.87 295.968,1065.2 274.5,1061C 266.676,1059.67 262.01,1055.17 260.5,1047.5C 262.01,1039.83 266.676,1035.33 274.5,1034C 301.565,1028.75 328.732,1025.92 356,1025.5C 376.71,1023.83 397.71,1022.5 419,1021.5C 420.107,1021.59 421.107,1021.92 422,1022.5C 447.588,1021.21 473.088,1020.21 498.5,1019.5 Z"/></g>
<g><path style="opacity:0.11" fill="#686868" d="M 770.5,1051.5 C 761.827,1051.33 753.16,1051.5 744.5,1052C 742.292,1052.19 740.292,1052.69 738.5,1053.5C 642.183,1056.79 545.85,1057.29 449.5,1055C 406.078,1054.2 362.745,1051.86 319.5,1048C 382.691,1042.44 446.025,1039.78 509.5,1040C 611.263,1038.37 712.93,1040.7 814.5,1047C 817.5,1047.33 820.5,1047.67 823.5,1048C 805.865,1049.67 788.199,1050.83 770.5,1051.5 Z"/></g>
<g><path style="opacity:0.11" fill="#8f8f8f" d="M 770.5,1051.5 C 760.01,1052.56 749.344,1053.23 738.5,1053.5C 740.292,1052.69 742.292,1052.19 744.5,1052C 753.16,1051.5 761.827,1051.33 770.5,1051.5 Z"/></g>
</svg>
